<svg width="5" height="10" viewBox="0 0 5 10" fill="none" xmlns="http://www.w3.org/2000/svg">
<path d="M4.81171 0.00201595L3.61244 0C2.2651 0 1.39439 0.935905 1.39439 2.38447V3.48386H0.188574C0.0843773 3.48386 0 3.57236 0 3.68153V5.27443C0 5.3836 0.0844735 5.472 0.188574 5.472H1.39439V9.4914C1.39439 9.60056 1.47877 9.68896 1.58296 9.68896H3.15621C3.26041 9.68896 3.34478 9.60046 3.34478 9.4914V5.472H4.75466C4.85886 5.472 4.94324 5.3836 4.94324 5.27443L4.94381 3.68153C4.94381 3.62911 4.9239 3.57892 4.88859 3.54182C4.85328 3.50473 4.80517 3.48386 4.75514 3.48386H3.34478V2.55189C3.34478 2.10395 3.44667 1.87655 4.00364 1.87655L4.81152 1.87625C4.91562 1.87625 5 1.78774 5 1.67868V0.199579C5 0.090617 4.91572 0.00221755 4.81171 0.00201595Z" fill="black"/>
</svg>
