<svg width="8" height="8" viewBox="0 0 8 8" fill="none" xmlns="http://www.w3.org/2000/svg">
<path d="M6.82813 0H1.17188C0.525757 0 0 0.525757 0 1.17188V6.82813C0 7.47424 0.525757 8 1.17188 8H6.82813C7.47424 8 8 7.47424 8 6.82813V1.17188C8 0.525757 7.47424 0 6.82813 0ZM4.01563 6.09375C2.85248 6.09375 1.90625 5.14752 1.90625 3.98438C1.90625 2.82123 2.85248 1.875 4.01563 1.875C5.17877 1.875 6.125 2.82123 6.125 3.98438C6.125 5.14752 5.17877 6.09375 4.01563 6.09375ZM6.35938 2.34375C5.97168 2.34375 5.65625 2.02832 5.65625 1.64063C5.65625 1.25293 5.97168 0.9375 6.35938 0.9375C6.74707 0.9375 7.0625 1.25293 7.0625 1.64063C7.0625 2.02832 6.74707 2.34375 6.35938 2.34375Z" fill="black"/>
<path d="M6.35938 1.40625C6.23004 1.40625 6.125 1.51129 6.125 1.64062C6.125 1.76996 6.23004 1.875 6.35938 1.875C6.48871 1.875 6.59375 1.76996 6.59375 1.64062C6.59375 1.51129 6.48871 1.40625 6.35938 1.40625Z" fill="black"/>
<path d="M4.01563 2.34375C3.11108 2.34375 2.375 3.07983 2.375 3.98438C2.375 4.88892 3.11108 5.625 4.01563 5.625C4.92017 5.625 5.65625 4.88892 5.65625 3.98438C5.65625 3.07983 4.92017 2.34375 4.01563 2.34375Z" fill="black"/>
</svg>
