<svg width="1395" height="232" viewBox="0 0 1395 232" fill="none" xmlns="http://www.w3.org/2000/svg">
<path d="M34.675 36.8H0.3V3.24998H114.15V36.8H80.325V226H34.675V36.8ZM132.156 3.24998H177.531V94.55H216.856V3.24998H262.231V226H216.856V127.275H177.531V226H132.156V3.24998ZM293.48 3.24998H390.555V34.6H338.58V93.725H378.73V125.35H338.58V195.2H391.105V226H293.48V3.24998ZM477.58 3.24998H548.255C586.755 3.24998 606.005 24.6083 606.005 67.325C606.005 89.875 600.505 105.917 589.505 115.45C578.505 124.8 563.196 129.475 543.58 129.475H522.68V226H477.58V3.24998ZM538.905 97.575C548.621 97.575 555.13 95.2833 558.43 90.7C561.73 86.1167 563.38 78.05 563.38 66.5C563.38 58.9833 562.83 53.1167 561.73 48.9C560.63 44.5 558.246 41.1083 554.58 38.725C551.096 36.3417 545.78 35.15 538.63 35.15H522.68V97.575H538.905ZM626.295 3.24998H684.045C708.061 3.24998 726.12 7.64999 738.22 16.45C750.32 25.25 756.37 40.4667 756.37 62.1C756.37 76.5833 754.353 88.3167 750.32 97.3C746.286 106.1 739.136 112.792 728.87 117.375L759.67 226H713.195L687.895 125.075H671.395V226H626.295V3.24998ZM684.87 98.125C695.503 98.125 702.928 95.5583 707.145 90.425C711.545 85.1083 713.745 76.8583 713.745 65.675C713.745 54.675 711.82 46.6083 707.97 41.475C704.12 36.3417 697.153 33.775 687.07 33.775H671.395V98.125H684.87ZM844.685 229.025C821.035 229.025 804.169 222.883 794.085 210.6C784.002 198.133 778.96 179.892 778.96 155.875V72.825C778.96 48.8083 784.002 30.75 794.085 18.65C804.169 6.54999 821.035 0.499986 844.685 0.499986C868.152 0.499986 884.927 6.64166 895.01 18.925C905.277 31.025 910.41 48.9917 910.41 72.825V156.15C910.41 179.983 905.277 198.133 895.01 210.6C884.927 222.883 868.152 229.025 844.685 229.025ZM844.685 196.575C852.385 196.575 857.519 194.008 860.085 188.875C862.835 183.558 864.21 176.317 864.21 167.15V61.825C864.21 52.6583 862.835 45.6 860.085 40.65C857.519 35.5167 852.385 32.95 844.685 32.95C836.985 32.95 831.76 35.5167 829.01 40.65C826.444 45.6 825.16 52.6583 825.16 61.825V167.15C825.16 176.5 826.444 183.742 829.01 188.875C831.577 194.008 836.802 196.575 844.685 196.575ZM922.871 199.875C930.388 199.875 936.071 199.233 939.921 197.95C943.771 196.667 946.521 194.283 948.171 190.8C949.821 187.317 950.646 182 950.646 174.85V3.24998H996.021V176.775C996.021 189.425 994.463 199.783 991.346 207.85C988.413 215.733 983.188 221.692 975.671 225.725C968.155 229.575 957.888 231.5 944.871 231.5H922.871V199.875ZM1026.78 3.24998H1123.86V34.6H1071.88V93.725H1112.03V125.35H1071.88V195.2H1124.41V226H1026.78V3.24998ZM1206.76 229.025C1183.11 229.025 1166.33 222.7 1156.43 210.05C1146.53 197.217 1141.58 178.792 1141.58 154.775V75.025C1141.58 50.4583 1146.44 31.9417 1156.16 19.475C1166.06 6.82499 1182.93 0.499986 1206.76 0.499986C1229.49 0.499986 1245.53 6.09165 1254.88 17.275C1264.42 28.275 1269.18 44.1333 1269.18 64.85V83.55H1225.18V62.925C1225.18 56.325 1224.82 51.0083 1224.08 46.975C1223.53 42.9417 1221.88 39.6417 1219.13 37.075C1216.57 34.325 1212.53 32.95 1207.03 32.95C1198.78 32.95 1193.47 35.6083 1191.08 40.925C1188.7 46.2417 1187.51 54.0333 1187.51 64.3V165.5C1187.51 175.95 1188.88 183.742 1191.63 188.875C1194.38 194.008 1199.52 196.575 1207.03 196.575C1214.73 196.575 1219.68 194.008 1221.88 188.875C1224.08 183.558 1225.18 175.767 1225.18 165.5V143.775H1269.18V162.2C1269.18 183.467 1264.51 199.967 1255.16 211.7C1245.81 223.25 1229.68 229.025 1206.76 229.025ZM1315.04 36.8H1280.66V3.24998H1394.51V36.8H1360.69V226H1315.04V36.8Z" fill="black"/>
</svg>
